# File created by Blade
# Date/Time:  Thu Sep 25 19:26:26 2014
# Frame Rate: 120.000 fps
#------------------------------------------------------
:FULLY-SPECIFIED
:DEGREES
1363
root 3.100785 33.372065 -7.486451 9.359413 2.332196 0.993169
Spine -8.915168 2.987004 -3.451385
Head -17.925973 -3.999067 10.634119
LeftShoulder -12.454741 15.890329 30.832951
LeftArm 18.587590 -24.369534 -28.279897
LeftForeArm 14.616542 -0.000000 11.823416
LeftHand -26.380627 -0.000000 -10.301737
LeftHandThumb1 -26.253704 0.000000 33.147579
RightShoulder -19.638652 14.548568 -40.845249
RightArm -7.128144 10.550484 29.749630
RightForeArm -31.534971 -0.000000 14.145701
RightHand -14.252691 -0.000000 3.181036
RightHandThumb1 -24.326973 -0.000000 -32.862282
LeftUpLeg -10.409894 2.067649 3.030041
LeftLeg 10.674517 -0.000000 -0.000000
LeftFoot -16.180302 1.940242 -20.916918
LeftToeBase 3.057184 -0.000000 -0.000000
RightUpLeg -5.556205 -5.154477 0.205677
RightLeg 0.577494 -0.000000 -0.000000
RightFoot -6.637066 -6.374643 4.137113
RightToeBase 0.334550 -0.000000 -0.000000
1364
root 3.097897 33.365100 -7.481044 9.399334 2.437708 0.944948
Spine -8.950012 3.008197 -3.353705
Head -17.890688 -3.992933 10.701296
LeftShoulder -12.421824 15.889354 30.829889
LeftArm 18.635615 -24.284002 -28.265396
LeftForeArm 14.692493 0.000000 11.809326
LeftHand -26.301880 -0.000000 -10.206970
LeftHandThumb1 -26.253704 0.000000 33.147579
RightShoulder -19.659918 14.553474 -40.855878
RightArm -7.231335 10.573615 29.697800
RightForeArm -31.645664 -0.000000 14.200865
RightHand -14.280315 -0.000000 3.244760
RightHandThumb1 -24.326973 -0.000000 -32.862282
LeftUpLeg -10.387862 1.804752 2.994819
LeftLeg 10.456779 -0.000000 -0.000000
LeftFoot -15.933774 1.860833 -20.952852
LeftToeBase 3.163205 -0.000000 -0.000000
RightUpLeg -5.574865 -5.236004 0.276954
RightLeg 0.574785 -0.000000 -0.000000
RightFoot -6.692982 -6.382570 4.120044
RightToeBase 0.397993 -0.000000 -0.000000
1365
root 3.095572 33.356247 -7.475729 9.438685 2.550796 0.862319
Spine -8.986738 3.043024 -3.216714
Head -17.884823 -3.991071 10.769115
LeftShoulder -12.387911 15.889100 30.833736
LeftArm 18.688405 -24.281290 -28.289174
LeftForeArm 14.685279 -0.000000 11.897932
LeftHand -26.373981 -0.000000 -10.217490
LeftHandThumb1 -26.253704 0.000000 33.147579
RightShoulder -19.758522 14.449147 -40.900299
RightArm -7.173818 10.544086 29.747871
RightForeArm -31.482048 -0.000000 14.135668
RightHand -14.240761 0.000000 3.093333
RightHandThumb1 -24.326973 -0.000000 -32.862282
LeftUpLeg -10.375778 1.609719 3.006639
LeftLeg 10.287054 -0.000000 -0.000000
LeftFoot -15.619727 1.772375 -20.856809
LeftToeBase 3.619911 -0.000000 -0.000000
RightUpLeg -5.585380 -5.274093 0.379005
RightLeg 0.553810 -0.000000 -0.000000
RightFoot -6.734602 -6.429358 4.125170
RightToeBase 0.386131 -0.000000 -0.000000
1366
root 3.092550 33.346181 -7.467214 9.466237 2.659423 0.760742
Spine -9.026485 3.053325 -3.066580
Head -17.827968 -3.980151 10.860582
LeftShoulder -12.346893 15.885994 30.852477
LeftArm 18.703151 -24.172298 -28.244360
LeftForeArm 14.618638 -0.000000 11.912109
LeftHand -26.426614 -0.000000 -10.200585
LeftHandThumb1 -26.253704 0.000000 33.147579
RightShoulder -19.772052 14.310725 -40.894195
RightArm -7.175679 10.667319 29.779237
RightForeArm -31.681401 -0.000000 14.168066
RightHand -14.627045 -0.000000 2.701235
RightHandThumb1 -24.326973 -0.000000 -32.862282
LeftUpLeg -10.325599 1.459725 3.061104
LeftLeg 10.050044 -0.000000 -0.000000
LeftFoot -15.178457 1.747633 -20.509490
LeftToeBase 3.827363 -0.000000 -0.000000
RightUpLeg -5.592297 -5.337417 0.503346
RightLeg 0.558045 -0.000000 -0.000000
RightFoot -6.793370 -6.457705 4.091274
RightToeBase 0.415843 -0.000000 -0.000000
